<?xml version="1.0" encoding="utf-8"?>
<!-- Generator: Adobe Illustrator 24.2.0, SVG Export Plug-In . SVG Version: 6.00 Build 0)  -->
<svg version="1.1" id="Capa_1" xmlns="http://www.w3.org/2000/svg" xmlns:xlink="http://www.w3.org/1999/xlink" x="0px" y="0px"
	 viewBox="0 0 363 75" style="enable-background:new 0 0 363 75;" xml:space="preserve">
<style type="text/css">
	.st0{enable-background:new    ;}
	.st1{fill:#FFDC64;}
	.st2{fill:#EBAF4B;}
	.st3{fill:#E69641;}
	.st4{fill:#D27D38;}
	.st5{fill:#AFD755;}
	.st6{fill:#BEE86E;}
	.st7{fill:#FFC850;}
	.st8{fill:#4B3F4E;}
	.st9{fill:#5D5360;}
	.st10{fill:#FFFFFF;}
</style>
<g class="st0">
	<path d="M108.4,48.1V39h-6.2v9.1h-8.2V22.4h8.2v9.1h6.2v-9.1h8.2v25.6H108.4z"/>
	<path d="M119.5,35.3c0-4.7,0.9-8.1,2.6-10.2c1.8-2.1,4.9-3.2,9.5-3.2c4.6,0,7.7,1.1,9.5,3.2c1.8,2.1,2.6,5.6,2.6,10.2
		c0,2.3-0.2,4.3-0.6,5.9c-0.4,1.6-1,3-1.9,4.1c-0.9,1.2-2.1,2-3.7,2.6c-1.6,0.5-3.6,0.8-5.9,0.8c-2.4,0-4.3-0.3-5.9-0.8
		c-1.6-0.5-2.8-1.4-3.7-2.6c-0.9-1.2-1.5-2.6-1.9-4.1C119.7,39.5,119.5,37.6,119.5,35.3z M128.3,31v10.7h3.4c1.1,0,1.9-0.1,2.4-0.4
		c0.5-0.3,0.8-0.9,0.8-1.8V28.8h-3.4c-1.1,0-1.9,0.1-2.4,0.4C128.6,29.5,128.3,30.1,128.3,31z"/>
	<path d="M168.9,48.1h-9l-3.4-7.6h-1.8v7.6h-8.2V22.4h12.9c5.9,0,8.8,3,8.8,9c0,4.1-1.3,6.8-3.8,8.1L168.9,48.1z M154.8,29v5.1h1.9
		c1,0,1.7-0.1,2.2-0.3c0.5-0.2,0.7-0.7,0.7-1.4v-1.7c0-0.7-0.2-1.2-0.7-1.4c-0.5-0.2-1.2-0.3-2.2-0.3H154.8z"/>
	<path d="M171.8,48.1V22.4h8.2v25.6H171.8z"/>
	<path d="M205.2,48.1h-22.1v-5.1l10.5-13.7l-0.1-0.2h-8.6l-0.7-6.6h20.9v5.1l-10.4,13.7l0.1,0.2h10.4V48.1z"/>
	<path d="M207.1,35.3c0-4.7,0.9-8.1,2.6-10.2c1.8-2.1,4.9-3.2,9.5-3.2c4.6,0,7.7,1.1,9.5,3.2c1.8,2.1,2.6,5.6,2.6,10.2
		c0,2.3-0.2,4.3-0.6,5.9s-1,3-1.9,4.1c-0.9,1.2-2.1,2-3.7,2.6c-1.6,0.5-3.6,0.8-5.9,0.8s-4.3-0.3-5.9-0.8c-1.6-0.5-2.8-1.4-3.7-2.6
		c-0.9-1.2-1.5-2.6-1.9-4.1S207.1,37.6,207.1,35.3z M215.9,31v10.7h3.4c1.1,0,1.9-0.1,2.4-0.4c0.5-0.3,0.8-0.9,0.8-1.8V28.8H219
		c-1.1,0-1.9,0.1-2.4,0.4S215.9,30.1,215.9,31z"/>
	<path d="M249.2,48.1l-6.3-9.1c-0.2-0.3-0.4-1-0.4-2h-0.2v11.1h-8.2V22.4h7.7l6.3,9.1c0.2,0.3,0.4,1,0.4,2h0.2V22.4h8.2v25.6H249.2z
		"/>
	<path d="M288.3,48.1h-22.1v-5.1l10.5-13.7l-0.1-0.2h-8.6l-0.7-6.6h20.9v5.1l-10.4,13.7l0.1,0.2h10.4V48.1z"/>
	<path d="M290.1,35.3c0-4.7,0.9-8.1,2.6-10.2c1.8-2.1,4.9-3.2,9.5-3.2c4.6,0,7.7,1.1,9.5,3.2c1.8,2.1,2.6,5.6,2.6,10.2
		c0,2.3-0.2,4.3-0.6,5.9s-1,3-1.9,4.1c-0.9,1.2-2.1,2-3.7,2.6c-1.6,0.5-3.6,0.8-5.9,0.8c-2.4,0-4.3-0.3-5.9-0.8
		c-1.6-0.5-2.8-1.4-3.7-2.6c-0.9-1.2-1.5-2.6-1.9-4.1C290.3,39.5,290.1,37.6,290.1,35.3z M298.9,31v10.7h3.4c1.1,0,1.9-0.1,2.4-0.4
		c0.5-0.3,0.8-0.9,0.8-1.8V28.8h-3.4c-1.1,0-1.9,0.1-2.4,0.4C299.2,29.5,298.9,30.1,298.9,31z"/>
	<path d="M316,35.3c0-4.7,0.9-8.1,2.6-10.2c1.8-2.1,4.9-3.2,9.5-3.2c4.6,0,7.7,1.1,9.5,3.2c1.8,2.1,2.6,5.6,2.6,10.2
		c0,2.3-0.2,4.3-0.6,5.9c-0.4,1.6-1,3-1.9,4.1c-0.9,1.2-2.1,2-3.7,2.6s-3.6,0.8-5.9,0.8c-2.4,0-4.3-0.3-5.9-0.8s-2.8-1.4-3.7-2.6
		c-0.9-1.2-1.5-2.6-1.9-4.1C316.2,39.5,316,37.6,316,35.3z M324.8,31v10.7h3.4c1.1,0,1.9-0.1,2.4-0.4s0.8-0.9,0.8-1.8V28.8H328
		c-1.1,0-1.9,0.1-2.4,0.4C325,29.5,324.8,30.1,324.8,31z"/>
</g>
<path class="st1" d="M51.3,6.7l-4.5,0.2v5.6c0,0.6-0.2,1.2-0.7,1.6c-0.9,0.9-2.3,0.9-3.2,0c-0.4-0.4-0.7-1-0.7-1.6V6.9l-4.5-0.2
	l-2.8,15.6l19,0.1L51.3,6.7z"/>
<g>
	<path class="st2" d="M54.7,24.6l1.1,2.2c11.8-2.7,14-11.3,14.5-14.5c0.1-0.6-0.5-1-1-0.8C66.5,12.9,59,16.9,54.7,24.6z"/>
	<path class="st2" d="M34.5,24.6l-1.1,2.2c-11.8-2.7-14-11.3-14.5-14.5c-0.1-0.6,0.5-1,1-0.8C22.7,12.9,30.2,16.9,34.5,24.6z"/>
</g>
<polygon class="st3" points="56.9,32.5 44.6,61.6 44.6,74 62.5,74 "/>
<polygon class="st4" points="54.7,41.4 53.1,41.4 44.6,61.6 44.6,74 51.4,74 "/>
<path class="st3" d="M38,53.8c0.5,4.4,3.3,7.8,6.6,7.8c3.4,0,6.1-3.4,6.6-7.8H38z"/>
<path class="st5" d="M26,58c-1.1,1.6-1.5,3.4-1.4,5c0,0.5,0.6,0.8,1,0.7c1.5-0.5,3-1.6,4.1-3.2c1.1-1.6,1.5-3.4,1.4-5
	c0-0.5-0.6-0.8-1-0.7C28.6,55.2,27.1,56.3,26,58z"/>
<g>
	<path class="st6" d="M17.2,52.5c-1.4,0.7-2.4,1.9-2.8,3.3c-0.1,0.4,0.1,0.9,0.5,1c1.4,0.5,2.9,0.4,4.3-0.3s2.4-1.9,2.8-3.3
		c0.1-0.4-0.1-0.9-0.5-1C20.1,51.8,18.6,51.8,17.2,52.5z"/>
	<path class="st6" d="M23.2,48.5c0.5,1.9,1.5,3.4,2.7,4.4c0.4,0.3,1,0.2,1.2-0.3c0.7-1.5,0.9-3.3,0.4-5.2S26,44,24.8,43
		c-0.4-0.3-1-0.2-1.2,0.3C22.9,44.8,22.7,46.7,23.2,48.5z"/>
</g>
<path class="st7" d="M44.6,17.9c-7.7,0-11.9,5-13.2,10.1l0.8,5.6c0,0,3,13.2,4.2,17.8c1.3,5.1,6.3,5.7,8.1,5.7
	c1.9,0,6.8-0.6,8.1-5.7c1.2-4.6,4.2-17.8,4.2-17.8l0.8-5.6C56.5,22.9,52.3,17.9,44.6,17.9z"/>
<path class="st2" d="M41.1,51.4c-0.5-4.6-1.8-17.8-1.8-17.8l-0.2-3.1c-0.1-2.3,0-4.6,0.6-6.8c0.9-3.3,2.5-5.9,4.8-5.9l0,0
	c-7.7,0-11.9,5-13.2,10.1l0.8,5.6c0,0,3,13.2,4.2,17.8c1.3,5.1,6.3,5.7,8.1,5.7C43.8,57.1,41.7,56.6,41.1,51.4z"/>
<path class="st8" d="M56.9,34.7L56.9,34.7c-1.9,0-3.4-1.5-3.4-3.4v-1.1c0-1.9,1.5-3.4,3.4-3.4l0,0c1.9,0,3.4,1.5,3.4,3.4v1.1
	C60.3,33.2,58.8,34.7,56.9,34.7z"/>
<path class="st9" d="M56.9,26.9v3.9c0,0.9,0.8,1.7,1.7,1.7s1.7-0.8,1.7-1.7v-0.6C60.3,28.4,58.8,26.9,56.9,26.9z"/>
<circle class="st10" cx="56.9" cy="29.1" r="1.1"/>
<path class="st8" d="M32.3,34.7L32.3,34.7c-1.9,0-3.4-1.5-3.4-3.4v-1.1c0-1.9,1.5-3.4,3.4-3.4l0,0c1.9,0,3.4,1.5,3.4,3.4v1.1
	C35.6,33.2,34.1,34.7,32.3,34.7z"/>
<path class="st9" d="M32.3,26.9v3.9c0,0.9,0.8,1.7,1.7,1.7s1.7-0.8,1.7-1.7v-0.6C35.6,28.4,34.1,26.9,32.3,26.9z"/>
<circle class="st10" cx="32.3" cy="29.1" r="1.1"/>
<g>
	<path class="st4" d="M40.1,8.9L40.1,8.9c-1.2,0-2.2-1-2.2-2.2l0,0c0-1.2,1-2.2,2.2-2.2l0,0c1.2,0,2.2,1,2.2,2.2l0,0
		C42.4,7.9,41.4,8.9,40.1,8.9z"/>
	<path class="st4" d="M49.1,8.9L49.1,8.9c-1.2,0-2.2-1-2.2-2.2l0,0c0-1.2,1-2.2,2.2-2.2l0,0c1.2,0,2.2,1,2.2,2.2l0,0
		C51.3,7.9,50.3,8.9,49.1,8.9z"/>
</g>
<path d="M71,10.4c-0.3-0.2-0.6-0.3-0.9-0.2c-0.4,0.1-8.7,2.3-14.3,11.2c-0.2-0.2-0.5-0.5-0.8-0.7L52.7,6.3c-0.3-1.7-1.7-2.9-3.4-2.9
	c-1.9,0-3.5,1.6-3.5,3.5v5.6c0,0.3-0.1,0.6-0.3,0.8s-0.5,0.3-0.8,0.3s-0.6-0.1-0.8-0.3s-0.3-0.5-0.3-0.8V6.9c0-1.9-1.6-3.5-3.5-3.5
	c-1.7,0-3.1,1.2-3.4,2.9l-2.4,14.3c-0.3,0.2-0.5,0.5-0.8,0.7c-5.6-8.9-13.9-11.1-14.3-11.2c-0.3-0.1-0.6,0-0.9,0.2s-0.4,0.5-0.4,0.8
	c0,0.1,0,3.4,1.7,6.9C21,21.1,24,25,30,26.4c-1.2,0.8-2,2.2-2,3.7v1.1c0,2.1,1.5,3.9,3.6,4.3c0.7,2.7,3,12.1,4,16
	c0.2,0.8,0.5,1.5,0.8,2.1c-1.7-0.1-4.6-0.4-8-1.1c0.7-1.6,0.8-3.6,0.3-5.5c-0.6-2.5-2.1-4.5-4-5.6c-0.5-0.3-1.1-0.1-1.4,0.3
	c-1.2,1.9-1.6,4.3-1,6.8c0.2,1,0.6,1.8,1.1,2.6c-2.4-0.8-4.9-1.8-7.3-3.1c-0.5-0.3-1.1-0.1-1.4,0.4c-0.3,0.5-0.1,1.1,0.4,1.4
	c0.8,0.4,1.5,0.8,2.3,1.2c-0.2,0.1-0.3,0.1-0.5,0.2c-1.9,0.9-3.2,2.7-3.5,4.8c-0.1,0.5,0.2,0.9,0.6,1.1c0.9,0.5,1.9,0.7,3,0.7
	c1,0,2-0.2,3-0.7c1.6-0.8,2.8-2.2,3.3-3.9c1.6,0.5,3.2,0.9,4.7,1.2c-1,0.7-1.9,1.5-2.6,2.6c-1.4,2.1-1.9,4.6-1.4,6.7
	c0.1,0.5,0.5,0.8,1,0.8c0.1,0,0.1,0,0.2,0c2.2-0.4,4.3-1.8,5.7-3.9c1.1-1.7,1.7-3.7,1.6-5.5c2.3,0.3,4,0.4,5,0.4
	c0.9,3.6,3.4,6.2,6.4,6.7V74c0,0.6,0.5,1,1,1c0.6,0,1-0.5,1-1V62.6c3.4-0.5,6.1-3.7,6.6-7.8c0.7-0.9,1.2-1.9,1.5-3.1
	c0.7-2.6,1.9-7.7,2.9-11.5l4.8,33.9c0.1,0.5,0.5,0.9,1,0.9h0.1c0.6-0.1,1-0.6,0.9-1.2l-5.5-38.2c1.9-0.5,3.2-2.2,3.2-4.2v-1.1
	c0-0.6-0.5-1-1-1c-0.6,0-1,0.5-1,1v1.1c0,1.3-1,2.3-2.3,2.3s-2.3-1-2.3-2.3v-1.1c0-1.3,1-2.3,2.3-2.3l0,0h0.8c0.3,0,0.6-0.2,0.8-0.4
	c0.2-0.2,0.3-0.5,0.2-0.8c6.4-1.3,9.5-5.3,11-8.5c1.6-3.6,1.7-6.8,1.7-6.9C71.4,10.9,71.3,10.6,71,10.4z M24.4,44.1
	c1,0.9,1.7,2.2,2.1,3.6c0.4,1.5,0.3,3-0.2,4.2c-1-0.9-1.7-2.2-2.1-3.6C23.9,46.8,23.9,45.3,24.4,44.1z M18.7,55.6
	c-1,0.5-2.2,0.6-3.3,0.3c0.4-1,1.2-1.9,2.2-2.4l0,0c1-0.5,2.2-0.6,3.3-0.3C20.5,54.2,19.8,55.1,18.7,55.6z M28.9,59.9
	c-0.8,1.2-2,2.2-3.2,2.7c0-1.3,0.4-2.8,1.2-4s2-2.2,3.2-2.7C30.1,57.2,29.7,58.6,28.9,59.9z M21.4,17.3c-0.8-1.8-1.2-3.5-1.4-4.6
	c2.6,1,8.1,3.9,12,10.4c-0.3,0.5-0.6,1-0.9,1.5C26.5,23.8,23.2,21.3,21.4,17.3z M44.6,60.6c-2,0-3.8-1.4-4.8-3.5h0.1
	c1.9,0.9,3.8,1,4.7,1c1,0,2.9-0.1,4.7-1h0.1C48.4,59.2,46.6,60.6,44.6,60.6z M52.5,30.2v1.1c0,2,1.3,3.7,3.1,4.2
	c-0.8,3.1-3,11.8-3.9,15.6C50.5,55.7,46,56,44.6,56s-5.9-0.4-7.1-4.9c-1-3.8-3.2-12.5-3.9-15.6c1.8-0.6,3.1-2.2,3.1-4.2v-1.1
	c0-0.6-0.5-1-1-1c-0.6,0-1,0.5-1,1v1.1c0,1.3-1,2.3-2.3,2.3s-2.3-1-2.3-2.3v-1.1c0-1.3,1-2.3,2.3-2.3c0.6,0,1-0.5,1-1
	c0-0.4-0.2-0.7-0.5-0.9c1.6-4.1,6.4-7,11.8-7c0.7,0,1.4,0,2.1,0.1c0.6,0.1,1.1-0.3,1.2-0.9c0.1-0.6-0.3-1.1-0.9-1.2
	c-0.8-0.1-1.6-0.2-2.4-0.2c-2.9,0-5.7,0.7-8.1,2.1l2-12.3c0.1-0.7,0.7-1.2,1.4-1.2c0.8,0,1.4,0.6,1.4,1.4v5.6c0,0.9,0.3,1.7,1,2.3
	c0.6,0.6,1.4,1,2.3,1s1.7-0.3,2.3-1c0.6-0.6,1-1.4,1-2.3V6.9c0-0.8,0.6-1.4,1.4-1.4c0.7,0,1.2,0.5,1.4,1.2l2,12.3
	c-0.3-0.2-0.6-0.3-0.9-0.5c-0.5-0.3-1.1,0-1.4,0.5c-0.3,0.5,0,1.1,0.5,1.4c2.6,1.2,4.5,3.2,5.5,5.5C54.2,26.1,52.5,28,52.5,30.2z
	 M67.9,17.2c-1.9,4-5.1,6.5-9.8,7.4c-0.2-0.5-0.5-1.1-0.9-1.5c3.8-6.5,9.4-9.4,12-10.4C69,13.8,68.7,15.5,67.9,17.2z"/>
<path d="M40.9,47.4c-0.4-0.4-1.1-0.4-1.5,0s-0.4,1.1,0,1.5l1.1,1.1c0.2,0.2,0.5,0.3,0.7,0.3s0.5-0.1,0.7-0.3c0.4-0.4,0.4-1.1,0-1.5
	L40.9,47.4z"/>
<path d="M48.3,47.4l-1.1,1.1c-0.4,0.4-0.4,1.1,0,1.5c0.2,0.2,0.5,0.3,0.7,0.3c0.3,0,0.5-0.1,0.7-0.3l1.1-1.1c0.4-0.4,0.4-1.1,0-1.5
	C49.4,47,48.8,47,48.3,47.4z"/>
</svg>
