<?xml version="1.0" encoding="utf-8"?>
<!-- Generator: Adobe Illustrator 24.2.0, SVG Export Plug-In . SVG Version: 6.00 Build 0)  -->
<svg version="1.1" id="Capa_1" xmlns="http://www.w3.org/2000/svg" xmlns:xlink="http://www.w3.org/1999/xlink" x="0px" y="0px"
	 viewBox="0 0 363 75" style="enable-background:new 0 0 363 75;" xml:space="preserve">
<style type="text/css">
	.st0{fill:#FFFFFF;}
	.st1{enable-background:new    ;}
</style>
<g>
	<g>
		<path class="st0" d="M58.7,5.5c4.6,3.7,7.7,9,8.6,15.1c5.3-2.4,9-7.7,9-13.9V0L58.7,5.5z"/>
	</g>
</g>
<g>
	<g>
		<polygon class="st0" points="39.2,25.6 32.8,41.4 36.2,48.1 42.2,48.1 45.5,41.4 		"/>
	</g>
</g>
<g>
	<g>
		<path class="st0" d="M66.5,55.9l-2-14.9c-0.9-5.5-1.4-11.2-1.4-16.9c0-10.8-8.8-19.6-19.6-19.6h-8.7c-10.8,0-19.6,8.8-19.6,19.6
			v0.1c0,5.6-0.5,11.3-1.4,16.9l-2,14.8c-0.7,5.2,2.4,10.1,7.3,11.8l5.8,1.9c3.1,2.9,7.4,4.8,11.7,4.8h5.1c4.3,0,8.5-1.8,11.7-4.8
			l5.8-1.9C64.1,66,67.2,61.1,66.5,55.9z M23.9,43.7h-4.4v-4.4h4.4V43.7z M32.6,63.3c0-1.2-1-2.2-2.2-2.2v-4.4
			c3.6,0,6.5,2.9,6.5,6.5h-4.3V63.3z M47.9,61.1c-1.2,0-2.2,1-2.2,2.2h-4.4c0-3.6,2.9-6.5,6.5-6.5v4.3H47.9z M44.9,52.4H33.5
			l-5.4-10.8l11.1-27.7l11.1,27.7L44.9,52.4z M58.8,43.7h-4.4v-4.4h4.4V43.7z"/>
	</g>
</g>
<g>
	<g>
		<path class="st0" d="M2,0v6.7c0,6.2,3.7,11.5,9,13.9c0.9-6.1,4.1-11.4,8.7-15.1L2,0z"/>
	</g>
</g>
<g class="st1">
	<path class="st0" d="M108.4,48.1V39h-6.2v9.1H94V22.4h8.2v9.1h6.2v-9.1h8.2V48L108.4,48.1L108.4,48.1z"/>
	<path class="st0" d="M119.5,35.3c0-4.7,0.9-8.1,2.6-10.2c1.8-2.1,4.9-3.2,9.5-3.2s7.7,1.1,9.5,3.2s2.6,5.6,2.6,10.2
		c0,2.3-0.2,4.3-0.6,5.9c-0.4,1.6-1,3-1.9,4.1c-0.9,1.2-2.1,2-3.7,2.6c-1.6,0.5-3.6,0.8-5.9,0.8c-2.4,0-4.3-0.3-5.9-0.8
		s-2.8-1.4-3.7-2.6c-0.9-1.2-1.5-2.6-1.9-4.1C119.7,39.5,119.5,37.6,119.5,35.3z M128.3,31v10.7h3.4c1.1,0,1.9-0.1,2.4-0.4
		c0.5-0.3,0.8-0.9,0.8-1.8V28.8h-3.4c-1.1,0-1.9,0.1-2.4,0.4C128.6,29.5,128.3,30.1,128.3,31z"/>
	<path class="st0" d="M168.9,48.1h-9l-3.4-7.6h-1.8v7.6h-8.2V22.4h12.9c5.9,0,8.8,3,8.8,9c0,4.1-1.3,6.8-3.8,8.1L168.9,48.1z
		 M154.8,29v5.1h1.9c1,0,1.7-0.1,2.2-0.3s0.7-0.7,0.7-1.4v-1.7c0-0.7-0.2-1.2-0.7-1.4c-0.5-0.2-1.2-0.3-2.2-0.3
		C156.7,29,154.8,29,154.8,29z"/>
	<path class="st0" d="M171.8,48.1V22.4h8.2V48L171.8,48.1L171.8,48.1z"/>
	<path class="st0" d="M205.2,48.1h-22.1V43l10.5-13.7l-0.1-0.2h-8.6l-0.7-6.6h20.9v5.1l-10.4,13.7l0.1,0.2h10.4L205.2,48.1
		L205.2,48.1z"/>
	<path class="st0" d="M207.1,35.3c0-4.7,0.9-8.1,2.6-10.2c1.8-2.1,4.9-3.2,9.5-3.2s7.7,1.1,9.5,3.2s2.6,5.6,2.6,10.2
		c0,2.3-0.2,4.3-0.6,5.9s-1,3-1.9,4.1c-0.9,1.2-2.1,2-3.7,2.6c-1.6,0.5-3.6,0.8-5.9,0.8s-4.3-0.3-5.9-0.8c-1.6-0.5-2.8-1.4-3.7-2.6
		c-0.9-1.2-1.5-2.6-1.9-4.1S207.1,37.6,207.1,35.3z M215.9,31v10.7h3.4c1.1,0,1.9-0.1,2.4-0.4c0.5-0.3,0.8-0.9,0.8-1.8V28.8H219
		c-1.1,0-1.9,0.1-2.4,0.4S215.9,30.1,215.9,31z"/>
	<path class="st0" d="M249.2,48.1l-6.3-9.1c-0.2-0.3-0.4-1-0.4-2h-0.2v11.1h-8.2V22.4h7.7l6.3,9.1c0.2,0.3,0.4,1,0.4,2h0.2V22.4h8.2
		V48L249.2,48.1L249.2,48.1z"/>
	<path class="st0" d="M288.3,48.1h-22.1V43l10.5-13.7l-0.1-0.2H268l-0.7-6.6h20.9v5.1l-10.4,13.7l0.1,0.2h10.4L288.3,48.1
		L288.3,48.1z"/>
	<path class="st0" d="M290.1,35.3c0-4.7,0.9-8.1,2.6-10.2c1.8-2.1,4.9-3.2,9.5-3.2s7.7,1.1,9.5,3.2s2.6,5.6,2.6,10.2
		c0,2.3-0.2,4.3-0.6,5.9s-1,3-1.9,4.1c-0.9,1.2-2.1,2-3.7,2.6c-1.6,0.5-3.6,0.8-5.9,0.8c-2.4,0-4.3-0.3-5.9-0.8s-2.8-1.4-3.7-2.6
		c-0.9-1.2-1.5-2.6-1.9-4.1C290.3,39.5,290.1,37.6,290.1,35.3z M298.9,31v10.7h3.4c1.1,0,1.9-0.1,2.4-0.4c0.5-0.3,0.8-0.9,0.8-1.8
		V28.8h-3.4c-1.1,0-1.9,0.1-2.4,0.4C299.2,29.5,298.9,30.1,298.9,31z"/>
	<path class="st0" d="M316,35.3c0-4.7,0.9-8.1,2.6-10.2c1.8-2.1,4.9-3.2,9.5-3.2s7.7,1.1,9.5,3.2s2.6,5.6,2.6,10.2
		c0,2.3-0.2,4.3-0.6,5.9c-0.4,1.6-1,3-1.9,4.1c-0.9,1.2-2.1,2-3.7,2.6s-3.6,0.8-5.9,0.8c-2.4,0-4.3-0.3-5.9-0.8s-2.8-1.4-3.7-2.6
		c-0.9-1.2-1.5-2.6-1.9-4.1C316.2,39.5,316,37.6,316,35.3z M324.8,31v10.7h3.4c1.1,0,1.9-0.1,2.4-0.4s0.8-0.9,0.8-1.8V28.8H328
		c-1.1,0-1.9,0.1-2.4,0.4C325,29.5,324.8,30.1,324.8,31z"/>
</g>
</svg>
